<!-- <svg xmlns="http://www.w3.org/2000/svg" viewBox="0 0 261.42 652">
  <g fill="#f8f8f8" fill-rule="evenodd">
    <path
      d="M157.29 652h-51.62a9 9 0 01-9-9 9.12 9.12 0 01.39-2.64l94.14-307a9 9 0 018.6-6.36h51.62a9 9 0 019 9 9.12 9.12 0 01-.39 2.64l-94.14 307a9 9 0 01-8.6 6.36z" />
    <path
      d="M107.78 652h26.51a21 21 0 0020.08-27.16l-86.78-283A21 21 0 0047.52 327H21A21 21 0 00.92 354.16l86.78 283A21 21 0 00107.78 652zM158.29 0h-51.62a9 9 0 00-9 9 9.12 9.12 0 00.39 2.64l94.14 307a9 9 0 008.6 6.36h51.62a9 9 0 009-9 9.12 9.12 0 00-.39-2.64l-94.14-307a9 9 0 00-8.6-6.36z" />
    <path
      d="M108.78 0h26.51a21 21 0 0120.08 27.16l-86.78 283A21 21 0 0148.52 325H22a21 21 0 01-20.08-27.16l86.78-283A21 21 0 01108.78 0z" />
  </g>
</svg> -->

      <svg
        class="canvas-mobile flex-1"
        :viewBox="`0 0 800 1200`"
        version="1.1"
        xmlns="http://www.w3.org/2000/svg"
        xmlns:xlink="http://www.w3.org/1999/xlink"
        preserveAspectRatio="xMidYMin meet"
      >
        <defs>
          <filter id="dropshadow" height="130%">
            <feGaussianBlur in="SourceAlpha" stdDeviation="5" />
            <!-- stdDeviation is how much to blur -->
            <feOffset dx="2" dy="2" result="offsetblur" />
            <!-- how much to offset -->
            <feComponentTransfer>
              <feFuncA type="linear" slope="0.1" />
              <!-- slope is the opacity of the shadow -->
            </feComponentTransfer>
            <feMerge>
              <feMergeNode />
              <!-- this contains the offset blurred image -->
              <feMergeNode in="SourceGraphic" />
              <!-- this contains the element that the filter is applied to -->
            </feMerge>
          </filter>

          <g id="brackets">
            <path
              d="M108.78 0h26.51a21 21 0 0 120.08 27.16l-86.78 283A21 21 0 0 148.52 325H22a21 21 0 0 1-20.08-27.16l86.78-283A21 21 0 0 1108.78 0z"
            />
            <path
              d="M158.29 0h-51.62a9 9 0 0 0-9 9 9.12 9.12 0 0 0.39 2.64l94.14 307a9 9 0 008.6 6.36h51.62a9 9 0 0 09-9 9.12 9.12 0 0 0-.39-2.64l-94.14-307a9 9 0 00-8.6-6.36z"
            />
          </g>

          <pattern
            id="dots4"
            viewBox="0,0,90,90"
            x="0"
            y="0"
            width="100%"
            height="100%"
          >
          </pattern>
        </defs>

        <g
          style="transform: scale(4) translate(45px, 1px)"
          fill="white"
          filter="url(#dropshadow)"
        >
          <use id="top" href="#brackets" />
          <use
            id="bottom"
            href="#brackets"
            style="
              transform: scale(1, -1) translate(0, 545px);
              transform-origin: center;
            "
          />
        </g>
      </svg>