<svg xmlns="http://www.w3.org/2000/svg" viewBox="0 0 382.56 323">
  <g style="opacity:0.7">
    <path fill="#efcb57" fill-rule="evenodd" style="mix-blend-mode:multiply"
      d="M110 84.8l.06-6.37c19.64-29.27 71.16-22.69 82-24.26 10.78 1.81 62.4-3.65 81.48 26l-.06 6.37c.36 24.38 17 31.49 45.07 31.8 24.95.27 45.33 4.83 45.52-15.5l.12-12.75c.15-15.62-4.26-29.95-11.57-40.76 0 0-16.71-29.74-57.31-42.66A111.78 111.78 0 00262.5 1.5L192.51.77 122.57 0a111.83 111.83 0 00-32.9 4.45c-40.84 12-58.11 41.4-58.11 41.4-7.51 10.67-12.18 24.89-12.33 40.52l-.12 12.74c-.2 20.33 20.26 16.22 45.21 16.49 28.06.31 44.85-6.44 45.68-30.8z">
    </path>
    <path fill="#efcb57" fill-rule="evenodd" style="mix-blend-mode:multiply"
      d="M90.48 125h208a22 22 0 0120.41 13.77l62.08 154A22 22 0 01360.55 323H22a22 22 0 01-20.1-30.94l68.48-154A22 22 0 0190.48 125z">
    </path>
    <ellipse cx="192.14" cy="143.5" rx="69" ry="68.5" style="mix-blend-mode:multiply" fill="#4bbfe1"></ellipse>
  </g>
</svg>