<?xml version="1.0" encoding="UTF-8"?>
<svg width="711px" height="550px" viewBox="0 0 711 550" version="1.1" xmlns="http://www.w3.org/2000/svg" xmlns:xlink="http://www.w3.org/1999/xlink">
    <title>Circle Chart</title>
    <defs>
        <filter id="filter-1">
            <feColorMatrix in="SourceGraphic" type="matrix" values="0 0 0 0 0.772549 0 0 0 0 0.772549 0 0 0 0 0.772549 0 0 0 1.000000 0"></feColorMatrix>
        </filter>
        <path d="M30.3427989,12.1089117 C10.494051,49.6802778 0,92.117702 0,134.84754 L0,134.84754 C0,197.259045 22.2623796,257.773612 62.6644759,305.22705 L62.6644759,305.22705 C70.8048612,314.786717 85.1367365,315.941374 94.6938187,307.798787 L94.6938187,307.798787 C104.243405,299.663698 105.397751,285.320449 97.2648612,275.760782 L97.2648612,275.760782 C63.8488045,236.524909 45.4392408,186.469742 45.4392408,134.84754 L45.4392408,134.84754 C45.4392408,99.4880179 54.1118244,64.3909185 70.5125269,33.3501171 L70.5125269,33.3501171 C76.3816997,22.2534055 72.1391048,8.50248039 61.0453938,2.6392179 L61.0453938,2.6392179 C57.6573144,0.847248928 54.0293711,1.13686838e-13 50.4464023,1.13686838e-13 L50.4464023,1.13686838e-13 C42.2985212,1.13686838e-13 34.4204873,4.40119576 30.3427989,12.1089117" id="path-2"></path>
        <linearGradient x1="40.9905868%" y1="-3.47284255%" x2="77.5053413%" y2="187.324069%" id="linearGradient-4">
            <stop stop-color="#68DFBA" offset="0%"></stop>
            <stop stop-color="#4B71F4" offset="100%"></stop>
        </linearGradient>
        <filter id="filter-5">
            <feColorMatrix in="SourceGraphic" type="matrix" values="0 0 0 0 0.774230 0 0 0 0 0.774230 0 0 0 0 0.774230 0 0 0 1.000000 0"></feColorMatrix>
        </filter>
        <path d="M21.9367353,0.618505751 C9.39270929,1.11392533 -0.363755388,11.6903827 0.123318502,24.2410121 L0.123318502,24.2410121 C0.617885836,36.7991478 11.1686556,46.5724249 23.7051882,46.0845117 L23.7051882,46.0845117 C26.5901643,45.9719163 29.4901273,45.9193718 32.3975838,45.9193718 L32.3975838,45.9193718 C119.373994,45.9193718 197.785396,97.6381734 232.180306,177.678461 L232.180306,177.678461 C237.133473,189.215732 250.494285,194.537739 262.019202,189.576037 L262.019202,189.576037 C273.536626,184.606829 278.856972,171.222994 273.896312,159.685722 L273.896312,159.685722 C232.330175,62.9362837 137.530609,0.415834105 32.3975838,0.415834105 L32.3975838,0.415834105 C28.8831583,0.415834105 25.3987067,0.48339132 21.9367353,0.618505751" id="path-6"></path>
        <path d="M29.7588895,11.9979494 C10.3152181,49.0581405 0.0353314448,90.9181847 0.0353314448,133.066664 L0.0353314448,133.066664 C0.0353314448,194.629033 21.8433768,254.320273 61.4209405,301.128085 L61.4209405,301.128085 C69.3951955,310.557689 83.4345836,311.696637 92.7966232,303.664834 L92.7966232,303.664834 C102.15132,295.640426 103.282108,281.492323 95.3151955,272.062719 L95.3151955,272.062719 C62.5810992,233.360667 44.5472408,183.986523 44.5472408,133.066664 L44.5472408,133.066664 C44.5472408,98.1882242 53.0428329,63.5686364 69.1088272,32.9501588 L69.1088272,32.9501588 C74.858221,22.0044229 70.7022096,8.4405852 59.8349008,2.65709499 L59.8349008,2.65709499 C56.515966,0.889506548 52.9620623,0.0537848166 49.4522153,0.0537848166 L49.4522153,0.0537848166 C41.4706176,0.0537848166 33.7533598,4.39510036 29.7588895,11.9979494" id="path-8"></path>
        <polygon id="path-10" points="48.6062737 -2.73668744 171.18351 -3.54280522 169.974333 183.205131 47.397097 184.011249"></polygon>
        <linearGradient x1="51.3857887%" y1="46.4939799%" x2="54.4549851%" y2="54.4477666%" id="linearGradient-12">
            <stop stop-color="#F4F4F4" offset="0%"></stop>
            <stop stop-color="#FFFFFF" offset="59.0039011%"></stop>
            <stop stop-color="#FFFFFF" offset="100%"></stop>
        </linearGradient>
        <path d="M451.883287,194.105408 L555.447406,230.073317 C555.969122,230.254509 556.245171,230.824329 556.063979,231.346045 C555.968235,231.621725 555.756842,231.841825 555.48525,231.948613 L456.530972,270.856585 C456.296491,270.948781 456.035848,270.949066 455.801166,270.857383 L344.719743,227.461515 C344.20532,227.260547 343.951215,226.680609 344.152183,226.166187 C344.264619,225.878382 344.503787,225.658717 344.800095,225.571109 L451.271676,194.091096 C451.472036,194.031857 451.685918,194.036861 451.883287,194.105408 Z" id="path-13"></path>
        <filter x="-14.5%" y="-34.4%" width="132.0%" height="194.6%" filterUnits="objectBoundingBox" id="filter-14">
            <feOffset dx="3" dy="10" in="SourceAlpha" result="shadowOffsetOuter1"></feOffset>
            <feGaussianBlur stdDeviation="10.5" in="shadowOffsetOuter1" result="shadowBlurOuter1"></feGaussianBlur>
            <feColorMatrix values="0 0 0 0 0.743404665   0 0 0 0 0.742894707   0 0 0 0 0.742894707  0 0 0 0.5 0" type="matrix" in="shadowBlurOuter1"></feColorMatrix>
        </filter>
        <linearGradient x1="51.3857887%" y1="46.5580154%" x2="54.4549851%" y2="54.3665306%" id="linearGradient-15">
            <stop stop-color="#F4F4F4" offset="0%"></stop>
            <stop stop-color="#FFFFFF" offset="59.0039011%"></stop>
            <stop stop-color="#FFFFFF" offset="100%"></stop>
        </linearGradient>
        <path d="M224.895429,537.103586 L329.421254,573.072451 C329.943484,573.252158 330.221153,573.82119 330.041447,574.343419 C329.945809,574.621344 329.732745,574.843121 329.458875,574.949817 L229.585163,613.859032 C229.352402,613.949712 229.094129,613.949992 228.861171,613.859818 L116.74816,570.462767 C116.233114,570.263402 115.977205,569.684258 116.176571,569.169212 C116.288821,568.87922 116.529588,568.65795 116.828005,568.570528 L224.288903,537.089499 C224.487659,537.031273 224.699591,537.036195 224.895429,537.103586 Z" id="path-16"></path>
        <filter x="-14.4%" y="-34.4%" width="131.6%" height="194.6%" filterUnits="objectBoundingBox" id="filter-17">
            <feOffset dx="3" dy="10" in="SourceAlpha" result="shadowOffsetOuter1"></feOffset>
            <feGaussianBlur stdDeviation="10.5" in="shadowOffsetOuter1" result="shadowBlurOuter1"></feGaussianBlur>
            <feColorMatrix values="0 0 0 0 0.743404665   0 0 0 0 0.742894707   0 0 0 0 0.742894707  0 0 0 0.5 0" type="matrix" in="shadowBlurOuter1"></feColorMatrix>
        </filter>
        <path d="M686.883287,531.105408 L790.447406,567.073317 C790.969122,567.254509 791.245171,567.824329 791.063979,568.346045 C790.968235,568.621725 790.756842,568.841825 790.48525,568.948613 L691.530972,607.856585 C691.296491,607.948781 691.035848,607.949066 690.801166,607.857383 L579.719743,564.461515 C579.20532,564.260547 578.951215,563.680609 579.152183,563.166187 C579.264619,562.878382 579.503787,562.658717 579.800095,562.571109 L686.271676,531.091096 C686.472036,531.031857 686.685918,531.036861 686.883287,531.105408 Z" id="path-18"></path>
        <filter x="-14.5%" y="-34.4%" width="132.0%" height="194.6%" filterUnits="objectBoundingBox" id="filter-19">
            <feOffset dx="3" dy="10" in="SourceAlpha" result="shadowOffsetOuter1"></feOffset>
            <feGaussianBlur stdDeviation="10.5" in="shadowOffsetOuter1" result="shadowBlurOuter1"></feGaussianBlur>
            <feColorMatrix values="0 0 0 0 0.743404665   0 0 0 0 0.742894707   0 0 0 0 0.742894707  0 0 0 0.5 0" type="matrix" in="shadowBlurOuter1"></feColorMatrix>
        </filter>
    </defs>
    <g id="New-2021" stroke="none" stroke-width="1" fill="none" fill-rule="evenodd">
        <g id="IE_desktop_Home" transform="translate(-997.000000, -268.000000)">
            <g id="Circle-Chart" transform="translate(896.000000, 142.000000)">
                <g id="ICON">
                    <g filter="url(#filter-1)" id="bar" opacity="0.25">
                        <g transform="translate(256.356655, 315.597141) rotate(-327.000000) translate(-256.356655, -315.597141) translate(205.014795, 158.984804)">
                            <mask id="mask-3" fill="white">
                                <use xlink:href="#path-2"></use>
                            </mask>
                            <g id="Clip-8"></g>
                            <path d="M30.3427989,12.1089117 C10.494051,49.6802778 0,92.117702 0,134.84754 L0,134.84754 C0,197.259045 22.2623796,257.773612 62.6644759,305.22705 L62.6644759,305.22705 C70.8048612,314.786717 85.1367365,315.941374 94.6938187,307.798787 L94.6938187,307.798787 C104.243405,299.663698 105.397751,285.320449 97.2648612,275.760782 L97.2648612,275.760782 C63.8488045,236.524909 45.4392408,186.469742 45.4392408,134.84754 L45.4392408,134.84754 C45.4392408,99.4880179 54.1118244,64.3909185 70.5125269,33.3501171 L70.5125269,33.3501171 C76.3816997,22.2534055 72.1391048,8.50248039 61.0453938,2.6392179 L61.0453938,2.6392179 C57.6573144,0.847248928 54.0293711,1.13686838e-13 50.4464023,1.13686838e-13 L50.4464023,1.13686838e-13 C42.2985212,1.13686838e-13 34.4204873,4.40119576 30.3427989,12.1089117" id="Fill-7" fill="url(#linearGradient-4)" mask="url(#mask-3)"></path>
                        </g>
                    </g>
                    <g filter="url(#filter-5)" id="bar" opacity="0.254882812">
                        <g transform="translate(627.332571, 331.089673) rotate(-327.000000) translate(-627.332571, -331.089673) translate(489.332571, 235.089673)">
                            <mask id="mask-7" fill="white">
                                <use xlink:href="#path-6"></use>
                            </mask>
                            <g id="Clip-14"></g>
                            <path d="M17.1804486,-1.90796221 C4.63642262,-1.41254263 -5.12004207,9.16391475 -4.63296818,21.7145441 L-4.63296818,21.7145441 C-4.13840084,34.2726798 6.41236895,44.0459569 18.9489015,43.5580437 L18.9489015,43.5580437 C21.8338776,43.4454484 24.7338406,43.3929039 27.6412971,43.3929039 L27.6412971,43.3929039 C114.617707,43.3929039 193.02911,95.1117054 227.42402,175.151993 L227.42402,175.151993 C232.377187,186.689264 245.737998,192.011271 257.262916,187.049569 L257.262916,187.049569 C268.78034,182.080361 274.100685,168.696526 269.140025,157.159255 L269.140025,157.159255 C227.573889,60.4098158 132.774323,-2.11063386 27.6412971,-2.11063386 L27.6412971,-2.11063386 C24.1268716,-2.11063386 20.64242,-2.04307664 17.1804486,-1.90796221" id="Fill-13" fill="#D8D8D8" mask="url(#mask-7)"></path>
                        </g>
                    </g>
                    <g id="bar" transform="translate(455.810729, 625.910703) rotate(-87.000000) translate(-455.810729, -625.910703) translate(405.310729, 470.910703)">
                        <mask id="mask-9" fill="white">
                            <use xlink:href="#path-8"></use>
                        </mask>
                        <g id="Clip-8"></g>
                        <path d="M29.7588895,11.9979494 C10.3152181,49.0581405 0.0353314448,90.9181847 0.0353314448,133.066664 L0.0353314448,133.066664 C0.0353314448,194.629033 21.8433768,254.320273 61.4209405,301.128085 L61.4209405,301.128085 C69.3951955,310.557689 83.4345836,311.696637 92.7966232,303.664834 L92.7966232,303.664834 C102.15132,295.640426 103.282108,281.492323 95.3151955,272.062719 L95.3151955,272.062719 C62.5810992,233.360667 44.5472408,183.986523 44.5472408,133.066664 L44.5472408,133.066664 C44.5472408,98.1882242 53.0428329,63.5686364 69.1088272,32.9501588 L69.1088272,32.9501588 C74.858221,22.0044229 70.7022096,8.4405852 59.8349008,2.65709499 L59.8349008,2.65709499 C56.515966,0.889506548 52.9620623,0.0537848166 49.4522153,0.0537848166 L49.4522153,0.0537848166 C41.4706176,0.0537848166 33.7533598,4.39510036 29.7588895,11.9979494" id="Fill-7" fill="#C5C5C5" opacity="0.25" mask="url(#mask-9)"></path>
                    </g>
                    <g id="bar" style="mix-blend-mode: multiply;" transform="translate(451.161050, 568.835443) rotate(-312.000000) translate(-451.161050, -568.835443) translate(341.870747, 478.601221)">
                        <mask id="mask-11" fill="white">
                            <use xlink:href="#path-10"></use>
                        </mask>
                        <g id="Clip-2" transform="translate(109.290304, 90.234222) rotate(-110.000000) translate(-109.290304, -90.234222) "></g>
                        <path d="M165.833999,172.900891 C158.331492,183.838048 143.590281,186.649034 132.908271,179.186433 C82.1146968,143.652393 50.5531878,84.9739524 48.4641108,22.2165742 C48.0273266,8.98156962 58.2454658,-2.24247697 71.2881034,-2.86631141 C84.3384884,-3.48228415 95.2677674,6.74020868 95.7123501,19.975162 C97.2977757,67.7809286 121.362047,112.495356 160.084231,139.563112 C170.75834,147.041591 173.336505,161.963734 165.833999,172.900891 Z" id="Fill-1" fill-opacity="0.25" fill="#C5C5C5" mask="url(#mask-11)" transform="translate(109.290371, 90.234231) rotate(-110.000000) translate(-109.290371, -90.234231) "></path>
                    </g>
                    <ellipse id="Oval" fill="#EBEBEB" opacity="0.55" style="mix-blend-mode: multiply;" cx="329.437674" cy="203.103165" rx="21.288" ry="21.3052805"></ellipse>
                    <ellipse id="Oval" fill="#EBEBEB" opacity="0.55" style="mix-blend-mode: multiply;" cx="551.436926" cy="629.303391" rx="22.4872521" ry="22.5055061"></ellipse>
                    <ellipse id="Oval" fill="#EBEBEB" opacity="0.31" style="mix-blend-mode: multiply;" cx="345.036926" cy="631.704521" rx="22.4872521" ry="22.5055061"></ellipse>
                    <ellipse id="Oval" fill="#EBEBEB" opacity="0.5" style="mix-blend-mode: multiply;" cx="377.313073" cy="571.681359" rx="23.5633987" ry="22.5105932"></ellipse>
                </g>
                <g id="Rectangle">
                    <use fill="black" fill-opacity="1" filter="url(#filter-14)" xlink:href="#path-13"></use>
                    <use fill="url(#linearGradient-12)" fill-rule="evenodd" xlink:href="#path-13"></use>
                </g>
                <g id="Rectangle">
                    <use fill="black" fill-opacity="1" filter="url(#filter-17)" xlink:href="#path-16"></use>
                    <use fill="url(#linearGradient-15)" fill-rule="evenodd" xlink:href="#path-16"></use>
                </g>
                <g id="Rectangle">
                    <use fill="black" fill-opacity="1" filter="url(#filter-19)" xlink:href="#path-18"></use>
                    <use fill="url(#linearGradient-12)" fill-rule="evenodd" xlink:href="#path-18"></use>
                </g>
                <g id="Promotion-icon" style="mix-blend-mode: multiply;" transform="translate(642.000000, 475.000000)">
                    <g id="Icon-3" transform="translate(0.398656, 0.000000)">
                        <rect id="Rectangle" fill="#4F77FF" x="41.1976418" y="0" width="37.764505" height="108" rx="6"></rect>
                        <rect id="Rectangle" fill="#4F77FF" x="0" y="23.2615385" width="37.764505" height="84.7384615" rx="6"></rect>
                        <ellipse id="Oval" fill="#4BBFE1" style="mix-blend-mode: multiply;" cx="77.6246273" cy="55.7307692" rx="22.6944382" ry="22.5"></ellipse>
                    </g>
                </g>
                <g id="Porduct-Icon-" transform="translate(173.000000, 472.000000)">
                    <g id="Icon-2" transform="translate(0.368017, -0.002663)">
                        <rect id="Rectangle" fill="#966CE0" x="23.560825" y="0" width="84.1458035" height="108.664612" rx="6"></rect>
                        <ellipse id="Oval" fill="#4BBFE1" style="mix-blend-mode: multiply;" cx="22.7193669" cy="53.4964242" rx="22.7193669" ry="21.7329223"></ellipse>
                        <rect id="Rectangle" fill="#B594F0" x="52.1703982" y="86.9316893" width="28.6095732" height="5.01528976"></rect>
                    </g>
                </g>
                <g id="Audience-icon" transform="translate(455.000000, 183.500000) scale(1, -1) translate(-455.000000, -183.500000) translate(398.000000, 125.000000)">
                    <g id="Icon-1" transform="translate(0.380825, 0.065875)">
                        <path d="M60.5500515,5.56024928 L108.997661,85.4970688 C110.142679,87.3863087 109.539369,89.8460612 107.650129,90.99108 C107.024962,91.3699776 106.307914,91.5703086 105.576889,91.5703086 L7.21356153,91.5703086 C5.00442253,91.5703086 3.21356153,89.7794476 3.21356153,87.5703086 C3.21356153,86.8211777 3.42393163,86.0871018 3.8207141,85.4516802 L53.7364327,5.51486065 C54.9065188,3.64104276 57.3740906,3.07055548 59.2479085,4.24064164 C59.7793076,4.57246828 60.2253337,5.02447667 60.5500515,5.56024928 Z" id="Rectangle" fill="#65D8B4"></path>
                        <ellipse id="Oval" fill="#4BBFE1" style="mix-blend-mode: multiply;" cx="55.8954415" cy="92.4707452" rx="22.4107953" ry="22.5905729"></ellipse>
                    </g>
                </g>
                <text id="Audience" opacity="0.35" font-family="Avenir-Book, Avenir" font-size="16" font-weight="normal" line-spacing="30" fill="#484848">
                    <tspan x="421.556" y="290">Audience</tspan>
                </text>
                <text id="Product" opacity="0.35" font-family="Avenir-Book, Avenir" font-size="16" font-weight="normal" line-spacing="30" fill="#484848">
                    <tspan x="199.304" y="630">Product</tspan>
                </text>
                <text id="Promotion" opacity="0.35" font-family="Avenir-Book, Avenir" font-size="16" font-weight="normal" line-spacing="30" fill="#484848">
                    <tspan x="656.324" y="630">Promotion</tspan>
                </text>
                <path d="M322.591194,618.506852 C435.133976,681.925151 518.804912,658.652605 591.69187,603" id="Path-5"></path>
                <path d="M567,204.695909 C673.565381,263.131982 693.972448,355.541483 681.613557,460.871061" id="Path-6"></path>
                <path d="M332,204.695909 C235.815261,253.389912 198.344368,338.305159 206.720965,451.504249" id="Path-7"></path>
                <path d="M369.524178,568.367838 C419.478851,595.778542 473.17895,596.54954 530.949674,568.367838" id="Path-4"></path>
                <path d="M276,639.39981 C486.345973,705.155634 640.345973,661.355698 738,508" id="Path-2"></path>
                <text id="Measure" opacity="0.35" transform="translate(448.789899, 590.301537) rotate(-20.000000) translate(-448.789899, -590.301537) " font-family="Avenir-Medium, Avenir" font-size="16" font-weight="400" fill="#484848">
                    <tspan x="417.677899" y="579.301537">Measure</tspan>
                </text>
                <path d="M301,577.920253 C363.706173,593.450573 408.530382,601.724263 435.472627,602.741324 C554.715566,607.242705 635.558024,552.995597 678,440" id="Path-3"></path>
                <text id="Optimize" opacity="0.35" transform="translate(457.738320, 618.506852) rotate(-3.000000) translate(-457.738320, -618.506852) " font-family="Avenir-Medium, Avenir" font-size="16" font-weight="400" fill="#484848">
                    <tspan x="424.42632" y="604.006852">Optimize</tspan>
                </text>
            </g>
        </g>
    </g>
</svg>