<?xml version="1.0" encoding="UTF-8"?>
<svg width="15px" height="26px" viewBox="0 0 15 26" version="1.1" fill="#484848" xmlns="http://www.w3.org/2000/svg" xmlns:xlink="http://www.w3.org/1999/xlink">
    <g id="Page-1" stroke="none" stroke-width="1" fill="#484848" fill-rule="evenodd">
        <g id="soclal-icons" transform="translate(-57.000000, -563.000000)">
            <g transform="translate(57.567058, 563.000000)">
                <g id="Column-1" transform="translate(0.000000, 0.000000)">
                    <g id="social" transform="translate(0.000000, 0.000000)">
                        <g id="icon/Social/Facebook/white" transform="translate(0.000000, 0.000000)">
                            <g transform="translate(0.000000, 0.000000)">
                                <path d="M9.42450877,26 L9.42450877,14.3 L13.1996977,14.3 L13.8163299,9.1 L9.42450877,9.1 L9.42450877,6.5676 C9.42450877,5.2286 9.46086044,3.9 11.4494318,3.9 L13.463584,3.9 L13.463584,0.182 C13.463584,0.1261 11.7335134,0 9.9832475,0 C6.32788446,0 4.03907519,2.1541 4.03907519,6.11 L4.03907519,9.1 L2.51824547e-14,9.1 L2.51824547e-14,14.3 L4.03907519,14.3 L4.03907519,26 L9.42450877,26 Z" id="facebook" fill="#484848"></path>
                            </g>
                        </g>
                    </g>
                </g>
            </g>
        </g>
    </g>
</svg>