<?xml version="1.0" encoding="UTF-8"?>
<svg width="32px" height="32px" viewBox="0 0 32 32" version="1.1" xmlns="http://www.w3.org/2000/svg" xmlns:xlink="http://www.w3.org/1999/xlink">
    <title>Group</title>
    <g id="Page-1" stroke="none" stroke-width="1" fill="none" fill-rule="evenodd">
        <g id="Group">
            <rect id="Rectangle" fill="#FFFFFF" x="0" y="0" width="32" height="32" rx="4"></rect>
            <g id="Group-2" transform="translate(10.000000, 2.000000)">
                <path d="M5.36457478,4.28775789e-15 L7.51771188,4.28775789e-15 C7.75621472,4.28775789e-15 7.94955947,0.192260819 7.94955947,0.429426557 C7.94955947,0.482733424 7.93957837,0.535574332 7.92012642,0.585248011 L2.98739923,13.1817604 C2.9227994,13.3467264 2.76301461,13.4553655 2.58498469,13.4553655 L0.431847589,13.4553655 C0.193344751,13.4553655 0,13.2631046 0,13.0259389 C0,12.972632 0.00998109509,12.9197911 0.0294330433,12.8701175 L4.96216024,0.273605104 C5.02676006,0.108639051 5.18654485,4.28775789e-15 5.36457478,4.28775789e-15 Z" id="Rectangle" fill="#4BBFE1" style="mix-blend-mode: multiply;"></path>
                <path d="M7.53137724,4.28775789e-15 L5.37824015,4.28775789e-15 C5.13973731,4.28775789e-15 4.94639256,0.192260819 4.94639256,0.429426557 C4.94639256,0.482733424 4.95637365,0.535574332 4.9758256,0.585248011 L9.90855279,13.1817604 C9.97315262,13.3467264 10.1329374,13.4553655 10.3109673,13.4553655 L12.4641044,13.4553655 C12.7026073,13.4553655 12.895952,13.2631046 12.895952,13.0259389 C12.895952,12.972632 12.8859709,12.9197911 12.866519,12.8701175 L7.93379179,0.273605104 C7.86919196,0.108639051 7.70940717,4.28775789e-15 7.53137724,4.28775789e-15 Z" id="Rectangle" fill="#4BBFE1" style="mix-blend-mode: multiply;"></path>
                <path d="M5.36457478,14.3386499 L7.51771188,14.3386499 C7.75621472,14.3386499 7.94955947,14.5309107 7.94955947,14.7680764 C7.94955947,14.8213833 7.93957837,14.8742242 7.92012642,14.9238979 L2.98739923,27.5204102 C2.9227994,27.6853763 2.76301461,27.7940153 2.58498469,27.7940153 L0.431847589,27.7940153 C0.193344751,27.7940153 0,27.6017545 0,27.3645888 C0,27.3112819 0.00998109509,27.258441 0.0294330433,27.2087673 L4.96216024,14.612255 C5.02676006,14.4472889 5.18654485,14.3386499 5.36457478,14.3386499 Z" id="Rectangle" fill="#EAEAEA" style="mix-blend-mode: multiply;" transform="translate(3.974780, 21.066333) scale(1, -1) translate(-3.974780, -21.066333) "></path>
                <path d="M7.53137724,14.3386499 L5.37824015,14.3386499 C5.13973731,14.3386499 4.94639256,14.5309107 4.94639256,14.7680764 C4.94639256,14.8213833 4.95637365,14.8742242 4.9758256,14.9238979 L9.90855279,27.5204102 C9.97315262,27.6853763 10.1329374,27.7940153 10.3109673,27.7940153 L12.4641044,27.7940153 C12.7026073,27.7940153 12.895952,27.6017545 12.895952,27.3645888 C12.895952,27.3112819 12.8859709,27.258441 12.866519,27.2087673 L7.93379179,14.612255 C7.86919196,14.4472889 7.70940717,14.3386499 7.53137724,14.3386499 Z" id="Rectangle" fill="#EAEAEA" style="mix-blend-mode: multiply;" transform="translate(8.921172, 21.066333) scale(1, -1) translate(-8.921172, -21.066333) "></path>
            </g>
        </g>
    </g>
</svg>