<?xml version="1.0" encoding="UTF-8"?>
<svg width="27px" height="26px" viewBox="0 0 27 26" fill="#484848" version="1.1" xmlns="http://www.w3.org/2000/svg" xmlns:xlink="http://www.w3.org/1999/xlink">
    <g id="Page-1" stroke="none" stroke-width="1" fill="none" fill-rule="evenodd">
        <g id="soclal-icons" transform="translate(-172.000000, -563.000000)">
            <g transform="translate(57.567058, 563.000000)">
                <g id="Column-1" transform="translate(0.000000, 0.000000)">
                    <g id="social" transform="translate(0.000000, 0.000000)">
                        <g id="icon/Social/Instagram/white" transform="translate(114.724882, 0.000030)">
                            <g id="Group-3" fill="#484848">
                                <path d="M21.421366,6.06053906 C21.421366,6.92209375 20.7254561,7.62053906 19.8670289,7.62053906 C19.0086017,7.62053906 18.3125906,6.92209375 18.3125906,6.06053906 C18.3125906,5.19898437 19.0086017,4.50053906 19.8670289,4.50053906 C20.7254561,4.50053906 21.421366,5.19898437 21.421366,6.06053906 M12.9527586,17.3333672 C10.5682274,17.3333672 8.63512183,15.3932187 8.63512183,13 C8.63512183,10.6067812 10.5682274,8.66663281 12.9527586,8.66663281 C15.3372899,8.66663281 17.2703954,10.6067812 17.2703954,13 C17.2703954,15.3932187 15.3372899,17.3333672 12.9527586,17.3333672 M12.9527586,6.32429687 C9.2793217,6.32429687 6.30128871,9.31307812 6.30128871,13 C6.30128871,16.6868203 9.2793217,19.6757031 12.9527586,19.6757031 C16.6261956,19.6757031 19.6042286,16.6868203 19.6042286,13 C19.6042286,9.31307812 16.6261956,6.32429687 12.9527586,6.32429687 M12.9527586,-2.27373675e-13 C9.4349578,-2.27373675e-13 8.99395512,0.0149296875 7.61235587,0.078203125 C6.23369123,0.141375 5.29208272,0.361054687 4.46816262,0.6825 C3.61641422,1.01471094 2.89409271,1.45925 2.17399748,2.18196875 C1.45390224,2.90458594 1.01097688,3.62953906 0.679971885,4.48449219 C0.359794632,5.31141406 0.140811201,6.25635156 0.0778686433,7.64014062 C0.0148248921,9.02667187 -5.05997659e-05,9.46938281 -5.05997659e-05,13 C-5.05997659e-05,16.5306172 0.0148248921,16.9733281 0.0778686433,18.3598594 C0.140811201,19.7435469 0.359794632,20.6885859 0.679971885,21.5155078 C1.01097688,22.3702578 1.45390224,23.0953125 2.17399748,23.8180312 C2.89409271,24.54075 3.61641422,24.9852891 4.46816262,25.3175 C5.29208272,25.6389453 6.23369123,25.858625 7.61235587,25.9217969 C8.99395512,25.9850703 9.4349578,26 12.9527586,26 C16.4705595,26 16.9117645,25.9850703 18.2931614,25.9217969 C19.6719272,25.858625 20.6134346,25.6389453 21.4373547,25.3175 C22.2891031,24.9852891 23.0115258,24.54075 23.731621,23.8180312 C24.451615,23.0953125 24.8945404,22.3703594 25.2256466,21.5155078 C25.5458238,20.6885859 25.7647061,19.7435469 25.8276486,18.3598594 C25.8906924,16.9733281 25.9055679,16.5306172 25.9055679,13 C25.9055679,9.46938281 25.8906924,9.02667187 25.8276486,7.64014062 C25.7647061,6.25635156 25.5458238,5.31141406 25.2256466,4.48449219 C24.8945404,3.62953906 24.451615,2.90458594 23.731621,2.18196875 C23.0115258,1.45925 22.2891031,1.01471094 21.4373547,0.6825 C20.6134346,0.361054687 19.6719272,0.141375 18.2931614,0.078203125 C16.9117645,0.0149296875 16.4705595,-2.27373675e-13 12.9527586,-2.27373675e-13 M12.9527586,2.34233594 C16.4113611,2.34233594 16.8209937,2.35553906 18.1868067,2.41810156 C19.4497056,2.47599219 20.1354961,2.68775 20.5920827,2.8656875 C21.1965134,3.10151562 21.628105,3.38335156 22.081251,3.83814844 C22.5345993,4.29304687 22.8152097,4.72621094 23.050283,5.33294531 C23.2276758,5.79109375 23.4386649,6.47948437 23.4962442,7.74688281 C23.5585796,9.11767187 23.5717348,9.52879687 23.5717348,13 C23.5717348,16.4711016 23.5585796,16.8822266 23.4962442,18.2530156 C23.4386649,19.5206172 23.2276758,20.2089062 23.050283,20.6670547 C22.8152097,21.2737891 22.5345993,21.7068516 22.081251,22.1618516 C21.628105,22.6166484 21.1965134,22.8984844 20.5920827,23.1342109 C20.1354961,23.31225 19.4497056,23.5240078 18.1868067,23.5818984 C16.8211961,23.6443594 16.4115635,23.6575625 12.9527586,23.6575625 C9.49405499,23.6575625 9.08432121,23.6443594 7.71871058,23.5818984 C6.45591287,23.5240078 5.77002114,23.31225 5.313637,23.1342109 C4.70900392,22.8984844 4.27741226,22.6166484 3.82416513,22.1618516 C3.3710192,21.7068516 3.09030754,21.2737891 2.85533548,20.6670547 C2.67794271,20.2089062 2.46695359,19.5206172 2.40937431,18.2531172 C2.34693772,16.8822266 2.33378252,16.4711016 2.33378252,13 C2.33378252,9.52879687 2.34693772,9.11767187 2.40937431,7.74688281 C2.46695359,6.47948437 2.67794271,5.79109375 2.85533548,5.33294531 C3.09030754,4.72621094 3.3710192,4.29304687 3.82416513,3.83814844 C4.27741226,3.38335156 4.70900392,3.10151562 5.313637,2.8656875 C5.77002114,2.68775 6.45591287,2.47599219 7.71871058,2.41810156 C9.08452359,2.35553906 9.49425738,2.34233594 12.9527586,2.34233594" id="Fill-1"></path>
                            </g>
                        </g>
                    </g>
                </g>
            </g>
        </g>
    </g>
</svg>