<?xml version="1.0" encoding="UTF-8"?>
<svg width="25px" height="24px" viewBox="0 0 25 24" fill="#484848" stroke="#4848" version="1.1" xmlns="http://www.w3.org/2000/svg" xmlns:xlink="http://www.w3.org/1999/xlink">
    <g id="Page-1" stroke="none" stroke-width="1" fill="none" fill-rule="evenodd">
        <g id="soclal-icons" transform="translate(-114.000000, -565.000000)">
            <g transform="translate(57.567058, 563.000000)">
                <g id="Column-1" transform="translate(0.000000, 0.000000)" fill="#484848">
                    <g id="social" transform="translate(0.000000, 0.000000)">
                        <path d="M81.0893611,26 L75.998012,26 L75.998012,18.4900998 C75.998012,16.6994778 75.9642232,14.3964225 73.3517391,14.3964225 C70.7023945,14.3964225 70.2984655,16.3477227 70.2984655,18.3627152 L70.2984655,26 L65.2117239,26 L65.2117239,10.5575143 L70.0926613,10.5575143 L70.0926613,12.6694928 L70.1633105,12.6694928 C70.8421571,11.4549966 72.5039488,10.173913 74.981278,10.173913 C80.1371329,10.173913 81.0893611,13.3715556 81.0893611,17.5303727 L81.0893611,26 Z M60.1104099,7.91304348 C58.5397538,7.91304348 57.2729054,6.64622759 57.2729054,5.08695652 C57.2729054,3.52768546 58.5397538,2.26086957 60.1104099,2.26086957 C61.673692,2.26086957 62.9434901,3.52768546 62.9434901,5.08695652 C62.9434901,6.64622759 61.673692,7.91304348 60.1104099,7.91304348 L60.1104099,7.91304348 Z M62.9434901,26 L58.4070223,26 L58.4070223,10.173913 L62.9434901,10.173913 L62.9434901,26 Z" id="Fill-209"></path>
                    </g>
                </g>
            </g>
        </g>
    </g>
</svg>