<?xml version="1.0" encoding="UTF-8"?>
<svg width="1112px" height="687px" viewBox="0 0 1112 687" version="1.1" xmlns="http://www.w3.org/2000/svg" xmlns:xlink="http://www.w3.org/1999/xlink">
    <title>Diagram</title>
    <defs>
        <filter id="filter-1">
            <feColorMatrix in="SourceGraphic" type="matrix" values="0 0 0 0 0.746065 0 0 0 0 0.746065 0 0 0 0 0.746065 0 0 0 1.000000 0"></feColorMatrix>
        </filter>
        <filter id="filter-2">
            <feColorMatrix in="SourceGraphic" type="matrix" values="0 0 0 0 0.858824 0 0 0 0 0.858824 0 0 0 0 0.858824 0 0 0 1.000000 0"></feColorMatrix>
        </filter>
        <filter id="filter-3">
            <feColorMatrix in="SourceGraphic" type="matrix" values="0 0 0 0 0.906335 0 0 0 0 0.906335 0 0 0 0 0.906335 0 0 0 1.000000 0"></feColorMatrix>
        </filter>
        <filter id="filter-4">
            <feColorMatrix in="SourceGraphic" type="matrix" values="0 0 0 0 1.000000 0 0 0 0 1.000000 0 0 0 0 1.000000 0 0 0 1.000000 0"></feColorMatrix>
        </filter>
        <filter id="filter-5">
            <feColorMatrix in="SourceGraphic" type="matrix" values="0 0 0 0 0.294118 0 0 0 0 0.749020 0 0 0 0 0.882353 0 0 0 1.000000 0"></feColorMatrix>
        </filter>
    </defs>
    <g id="Page-1" stroke="none" stroke-width="1" fill="none" fill-rule="evenodd">
        <g id="IE_desktop_AR" transform="translate(-401.000000, -1687.000000)">
            <g id="Secondary-section" transform="translate(-12.000000, 996.000000)">
                <g id="Diagram" transform="translate(413.000000, 686.000000)">
                    <g id="seats" transform="translate(92.000000, 442.000000)">
                        <g filter="url(#filter-1)" id="Group-9" opacity="0.512044271">
                            <g style="mix-blend-mode: multiply;" transform="translate(201.591778, 0.000000)">
                                <g id="Group-4" transform="translate(0.000000, 1.050420)">
                                    <path d="M0.644182895,34.104812 L0.644182895,8.52851326 C0.644182895,3.87148847 5.19523055,0.0902015765 10.8088576,0.0902015765 L61.0508198,0.0902015765 C66.6611054,0.0902015765 71.2121531,3.87148847 71.2121531,8.52851326 L71.2121531,34.104812" id="Fill-1" fill="#FF0000"></path>
                                    <path d="M0.644182895,34.104812 L0.644182895,8.52851326 C0.644182895,3.87148847 5.19523055,0.0902015765 10.8088576,0.0902015765 L61.0508198,0.0902015765 C66.6611054,0.0902015765 71.2121531,3.87148847 71.2121531,8.52851326 L71.2121531,34.104812" id="Stroke-3" stroke="#FFFFFF"></path>
                                </g>
                                <g id="Group-8" transform="translate(76.574774, 0.000000)">
                                    <path d="M0.823952619,34.8901347 L0.823952619,9.31383603 C0.823952619,4.6534169 5.37500027,0.875524342 10.9886273,0.875524342 L61.2305895,0.875524342 C66.8408751,0.875524342 71.3919228,4.6534169 71.3919228,9.31383603 L71.3919228,34.8901347" id="Fill-5" fill="#FF0000"></path>
                                    <path d="M0.823952619,34.8901347 L0.823952619,9.31383603 C0.823952619,4.6534169 5.37500027,0.875524342 10.9886273,0.875524342 L61.2305895,0.875524342 C66.8408751,0.875524342 71.3919228,4.6534169 71.3919228,9.31383603 L71.3919228,34.8901347" id="Stroke-7" stroke="#FFFFFF"></path>
                                </g>
                                <g id="Group-12" transform="translate(154.057308, 1.000000)">
                                    <path d="M0.0420884519,34.0839511 L0.0420884519,8.43976578 C0.0420884519,3.77934666 4.57331746,0.00145409403 10.1666053,0.00145409403 L60.3130942,0.00145409403 C65.906382,0.00145409403 70.437611,3.77934666 70.437611,8.43976578 L70.437611,34.0839511" id="Fill-9" fill="#FF0000"></path>
                                    <path d="M0.0420884519,34.0839511 L0.0420884519,8.43976578 C0.0420884519,3.77934666 4.57331746,0.00145409403 10.1666053,0.00145409403 L60.3130942,0.00145409403 C65.906382,0.00145409403 70.437611,3.77934666 70.437611,8.43976578 L70.437611,34.0839511" id="Stroke-11" stroke="#FFFFFF"></path>
                                </g>
                                <g id="Group-16" transform="translate(230.683826, 0.000000)">
                                    <path d="M0.16913037,34.978048 L0.16913037,9.33386259 C0.16913037,4.67344347 4.70035938,0.895550906 10.2936472,0.895550906 L60.4401361,0.895550906 C66.0334239,0.895550906 70.5646529,4.67344347 70.5646529,9.33386259 L70.5646529,34.978048" id="Fill-13" fill="#FF0000"></path>
                                    <path d="M0.16913037,34.978048 L0.16913037,9.33386259 C0.16913037,4.67344347 4.70035938,0.895550906 10.2936472,0.895550906 L60.4401361,0.895550906 C66.0334239,0.895550906 70.5646529,4.67344347 70.5646529,9.33386259 L70.5646529,34.978048" id="Stroke-15" stroke="#FFFFFF"></path>
                                </g>
                                <g id="Group-20" transform="translate(307.258599, 0.000000)">
                                    <path d="M0.0818653946,35.0309995 L0.0818653946,9.38681419 C0.0818653946,4.72639506 4.6295716,0.9485025 10.2465401,0.9485025 L60.5720384,0.9485025 C66.1856655,0.9485025 70.7333717,4.72639506 70.7333717,9.38681419 L70.7333717,35.0309995" id="Fill-17" fill="#FF0000"></path>
                                    <path d="M0.0818653946,35.0309995 L0.0818653946,9.38681419 C0.0818653946,4.72639506 4.6295716,0.9485025 10.2465401,0.9485025 L60.5720384,0.9485025 C66.1856655,0.9485025 70.7333717,4.72639506 70.7333717,9.38681419 L70.7333717,35.0309995" id="Stroke-19" stroke="#FFFFFF"></path>
                                </g>
                                <g id="Group-24" transform="translate(383.833373, 1.050420)">
                                    <path d="M0.259630252,34.0864826 L0.259630252,8.44229721 C0.259630252,3.78187808 4.8106779,0.00398551983 10.424305,0.00398551983 L60.7531447,0.00398551983 C66.3634303,0.00398551983 70.914478,3.78187808 70.914478,8.44229721 L70.914478,34.0864826" id="Fill-21" fill="#FF0000"></path>
                                    <path d="M0.259630252,34.0864826 L0.259630252,8.44229721 C0.259630252,3.78187808 4.8106779,0.00398551983 10.424305,0.00398551983 L60.7531447,0.00398551983 C66.3634303,0.00398551983 70.914478,3.78187808 70.914478,8.44229721 L70.914478,34.0864826" id="Stroke-23" stroke="#FFFFFF"></path>
                                </g>
                                <g id="Group-28" transform="translate(460.408147, 0.000000)">
                                    <path d="M0.439065831,34.8718053 L0.439065831,9.22422564 C0.439065831,4.56720085 4.99011348,0.789308285 10.6037405,0.789308285 L60.9325803,0.789308285 C66.5428659,0.789308285 71.0939136,4.56720085 71.0939136,9.22422564 L71.0939136,34.8718053" id="Fill-25" fill="#FF0000"></path>
                                    <path d="M0.439065831,34.8718053 L0.439065831,9.22422564 C0.439065831,4.56720085 4.99011348,0.789308285 10.6037405,0.789308285 L60.9325803,0.789308285 C66.5428659,0.789308285 71.0939136,4.56720085 71.0939136,9.22422564 L71.0939136,34.8718053" id="Stroke-27" stroke="#FFFFFF"></path>
                                </g>
                            </g>
                        </g>
                        <g filter="url(#filter-2)" id="Group-7">
                            <g transform="translate(172.727667, 24.350649)">
                                <g id="Group-32">
                                    <path d="M0.217355739,46.0143147 L0.217355739,11.9955917 C0.217355739,5.79656576 5.2297108,0.772648014 11.4144695,0.772648014 L66.7710243,0.772648014 C72.955783,0.772648014 77.9681381,5.79656576 77.9681381,11.9955917 L77.9681381,46.0143147" id="Fill-29" fill="#FF0000"></path>
                                    <path d="M0.217355739,46.0143147 L0.217355739,11.9955917 C0.217355739,5.79656576 5.2297108,0.772648014 11.4144695,0.772648014 L66.7710243,0.772648014 C72.955783,0.772648014 77.9681381,5.79656576 77.9681381,11.9955917 L77.9681381,46.0143147" id="Stroke-31" stroke="#FFFFFF"></path>
                                </g>
                                <g id="Group-36" transform="translate(84.181878, 0.000000)">
                                    <path d="M0.649422164,45.6614521 L0.649422164,11.6427292 C0.649422164,5.44370321 5.6463546,0.41978546 11.8120833,0.41978546 L66.9983102,0.41978546 C73.1607557,0.41978546 78.1609713,5.44370321 78.1609713,11.6427292 L78.1609713,45.6614521" id="Fill-33" fill="#FF0000"></path>
                                    <path d="M0.649422164,45.6614521 L0.649422164,11.6427292 C0.649422164,5.44370321 5.6463546,0.41978546 11.8120833,0.41978546 L66.9983102,0.41978546 C73.1607557,0.41978546 78.1609713,5.44370321 78.1609713,11.6427292 L78.1609713,45.6614521" id="Stroke-35" stroke="#FFFFFF"></path>
                                </g>
                                <g id="Group-40" transform="translate(171.288406, 0.000000)">
                                    <path d="M0.905990246,45.9192497 L0.905990246,11.8081026 C0.905990246,5.60907659 5.90292268,0.585158836 12.0686514,0.585158836 L67.3500892,0.585158836 C73.5125348,0.585158836 78.5127503,5.60907659 78.5127503,11.8081026 L78.5127503,45.9192497" id="Fill-37" fill="#FF0000"></path>
                                    <path d="M0.905990246,45.9192497 L0.905990246,11.8081026 C0.905990246,5.60907659 5.90292268,0.585158836 12.0686514,0.585158836 L67.3500892,0.585158836 C73.5125348,0.585158836 78.5127503,5.60907659 78.5127503,11.8081026 L78.5127503,45.9192497" id="Stroke-39" stroke="#FFFFFF"></path>
                                </g>
                                <g id="Group-44" transform="translate(256.406737, 0.000000)">
                                    <path d="M0.157107008,45.7773125 L0.157107008,11.6661653 C0.157107008,5.46713936 5.15403944,0.443221607 11.3197682,0.443221607 L66.6012059,0.443221607 C72.7669347,0.443221607 77.7638671,5.46713936 77.7638671,11.6661653 L77.7638671,45.7773125" id="Fill-41" fill="#FF0000"></path>
                                    <path d="M0.157107008,45.7773125 L0.157107008,11.6661653 C0.157107008,5.46713936 5.15403944,0.443221607 11.3197682,0.443221607 L66.6012059,0.443221607 C72.7669347,0.443221607 77.7638671,5.46713936 77.7638671,11.6661653 L77.7638671,45.7773125" id="Stroke-43" stroke="#FFFFFF"></path>
                                </g>
                                <g id="Group-48" transform="translate(340.473325, 0.000000)">
                                    <path d="M0.463362916,45.8482811 L0.463362916,11.7371339 C0.463362916,5.53810797 5.47571798,0.514190222 11.6604767,0.514190222 L67.1125362,0.514190222 C73.297295,0.514190222 78.3063568,5.53810797 78.3063568,11.7371339 L78.3063568,45.8482811" id="Fill-45" fill="#FF0000"></path>
                                    <path d="M0.463362916,45.8482811 L0.463362916,11.7371339 C0.463362916,5.53810797 5.47571798,0.514190222 11.6604767,0.514190222 L67.1125362,0.514190222 C73.297295,0.514190222 78.3063568,5.53810797 78.3063568,11.7371339 L78.3063568,45.8482811" id="Stroke-47" stroke="#FFFFFF"></path>
                                </g>
                                <g id="Group-52" transform="translate(427.695143, 0.000000)">
                                    <path d="M0.893030828,45.9902184 L0.893030828,11.8790712 C0.893030828,5.6800452 5.88996326,0.656127451 12.055692,0.656127451 L67.3338466,0.656127451 C73.4995753,0.656127451 78.4997909,5.6800452 78.4997909,11.8790712 L78.4997909,45.9902184" id="Fill-49" fill="#FF0000"></path>
                                    <path d="M0.893030828,45.9902184 L0.893030828,11.8790712 C0.893030828,5.6800452 5.88996326,0.656127451 12.055692,0.656127451 L67.3338466,0.656127451 C73.4995753,0.656127451 78.4997909,5.6800452 78.4997909,11.8790712 L78.4997909,45.9902184" id="Stroke-51" stroke="#FFFFFF"></path>
                                </g>
                                <g id="Group-56" transform="translate(512.813474, 0.000000)">
                                    <path d="M0.145789158,45.6357054 L0.145789158,11.5245582 C0.145789158,5.32553221 5.13943846,0.301614464 11.3051672,0.301614464 L66.586605,0.301614464 C72.7523337,0.301614464 77.7525492,5.32553221 77.7525492,11.5245582 L77.7525492,45.6357054" id="Fill-53" fill="#FF0000"></path>
                                    <path d="M0.145789158,45.6357054 L0.145789158,11.5245582 C0.145789158,5.32553221 5.13943846,0.301614464 11.3051672,0.301614464 L66.586605,0.301614464 C72.7523337,0.301614464 77.7525492,5.32553221 77.7525492,11.5245582 L77.7525492,45.6357054" id="Stroke-55" stroke="#FFFFFF"></path>
                                </g>
                            </g>
                        </g>
                        <g filter="url(#filter-3)" id="Group-5">
                            <g transform="translate(116.773634, 52.521008)">
                                <g id="Group-60">
                                    <path d="M0.765139522,57.2337567 L0.765139522,14.3933251 C0.765139522,6.58841673 6.77287685,0.26039916 14.182755,0.26039916 L80.5194459,0.26039916 C87.9326784,0.26039916 93.9370614,6.58841673 93.9370614,14.3933251 L93.9370614,57.2337567" id="Fill-57" fill="#FF0000"></path>
                                    <path d="M0.765139522,57.2337567 L0.765139522,14.3933251 C0.765139522,6.58841673 6.77287685,0.26039916 14.182755,0.26039916 L80.5194459,0.26039916 C87.9326784,0.26039916 93.9370614,6.58841673 93.9370614,14.3933251 L93.9370614,57.2337567" id="Stroke-59" stroke="#FFFFFF"></path>
                                </g>
                                <g id="Group-64" transform="translate(101.369384, 0.000000)">
                                    <path d="M0.792843155,56.8080808 L0.792843155,14.218178 C0.792843155,6.45891243 6.80058048,0.167900813 14.2104586,0.167900813 L80.5471495,0.167900813 C87.9570277,0.167900813 93.964765,6.45891243 93.964765,14.218178 L93.964765,56.8080808" id="Fill-61" fill="#FF0000"></path>
                                    <path d="M0.792843155,56.8080808 L0.792843155,14.218178 C0.792843155,6.45891243 6.80058048,0.167900813 14.2104586,0.167900813 L80.5471495,0.167900813 C87.9570277,0.167900813 93.964765,6.45891243 93.964765,14.218178 L93.964765,56.8080808" id="Stroke-63" stroke="#FFFFFF"></path>
                                </g>
                                <g id="Group-68" transform="translate(202.738768, 0.000000)">
                                    <path d="M0.763186482,57.1150401 L0.763186482,14.1580118 C0.763186482,6.34957028 6.77092381,0.0250859435 14.180802,0.0250859435 L80.6315426,0.0250859435 C88.0414207,0.0250859435 94.0491581,6.34957028 94.0491581,14.1580118 L94.0491581,57.1150401" id="Fill-65" fill="#FF0000"></path>
                                    <path d="M0.763186482,57.1150401 L0.763186482,14.1580118 C0.763186482,6.34957028 6.77092381,0.0250859435 14.180802,0.0250859435 L80.6315426,0.0250859435 C88.0414207,0.0250859435 94.0491581,6.34957028 94.0491581,14.1580118 L94.0491581,57.1150401" id="Stroke-67" stroke="#FFFFFF"></path>
                                </g>
                                <g id="Group-72" transform="translate(303.992851, 0.000000)">
                                    <path d="M0.59201522,56.9538524 L0.59201522,14.2480349 C0.59201522,6.48876927 6.61986774,0.197757652 14.0545557,0.197757652 L80.7277877,0.197757652 C88.1624757,0.197757652 94.1903282,6.48876927 94.1903282,14.2480349 L94.1903282,56.9538524" id="Fill-69" fill="#FF0000"></path>
                                    <path d="M0.59201522,56.9538524 L0.59201522,14.2480349 C0.59201522,6.48876927 6.61986774,0.197757652 14.0545557,0.197757652 L80.7277877,0.197757652 C88.1624757,0.197757652 94.1903282,6.48876927 94.1903282,14.2480349 L94.1903282,56.9538524" id="Stroke-71" stroke="#FFFFFF"></path>
                                </g>
                                <g id="Group-76" transform="translate(402.322306, 0.000000)">
                                    <path d="M0.617407833,57.0430717 L0.617407833,14.3372541 C0.617407833,6.57798853 6.62514516,0.286976912 14.0350233,0.286976912 L80.4857639,0.286976912 C87.8956421,0.286976912 93.9033794,6.57798853 93.9033794,14.3372541 L93.9033794,57.0430717" id="Fill-73" fill="#FF0000"></path>
                                    <path d="M0.617407833,57.0430717 L0.617407833,14.3372541 C0.617407833,6.57798853 6.62514516,0.286976912 14.0350233,0.286976912 L80.4857639,0.286976912 C87.8956421,0.286976912 93.9033794,6.57798853 93.9033794,14.3372541 L93.9033794,57.0430717" id="Stroke-75" stroke="#FFFFFF"></path>
                                </g>
                                <g id="Group-80" transform="translate(503.691690, 0.000000)">
                                    <path d="M0.643434263,57.2030176 L0.643434263,14.2459893 C0.643434263,6.44108098 6.65117159,0.113063407 14.0610497,0.113063407 L80.5117904,0.113063407 C87.9250229,0.113063407 93.9294058,6.44108098 93.9294058,14.2459893 L93.9294058,57.2030176" id="Fill-77" fill="#FF0000"></path>
                                    <path d="M0.643434263,57.2030176 L0.643434263,14.2459893 C0.643434263,6.44108098 6.65117159,0.113063407 14.0610497,0.113063407 L80.5117904,0.113063407 C87.9250229,0.113063407 93.9294058,6.44108098 93.9294058,14.2459893 L93.9294058,57.2030176" id="Stroke-79" stroke="#FFFFFF"></path>
                                </g>
                                <g id="Group-84" transform="translate(604.945773, 0.000000)">
                                    <path d="M0.471862045,56.7771702 L0.471862045,14.0713526 C0.471862045,6.31208704 6.49971456,0.0210754158 13.9344026,0.0210754158 L80.6110001,0.0210754158 C88.0456882,0.0210754158 94.0735407,6.31208704 94.0735407,14.0713526 L94.0735407,56.7771702" id="Fill-81" fill="#FF0000"></path>
                                    <path d="M0.471862045,56.7771702 L0.471862045,14.0713526 C0.471862045,6.31208704 6.49971456,0.0210754158 13.9344026,0.0210754158 L80.6110001,0.0210754158 C88.0456882,0.0210754158 94.0735407,6.31208704 94.0735407,14.0713526 L94.0735407,56.7771702" id="Stroke-83" stroke="#FFFFFF"></path>
                                </g>
                            </g>
                        </g>
                        <g filter="url(#filter-4)" id="Group-6">
                            <g transform="translate(0.000000, 98.787242)">
                                <path d="M111.435351,149.743303 L2.93906876,150.162665 C-0.917591059,150.136455 -0.987110249,147.354903 2.78016776,143.944306 L30.2932148,122.062104 C34.0604928,118.651508 40.2443902,115.909271 44.0977396,115.935295 L145.890386,116.63005 C149.747046,116.652984 150.283337,118.471313 146.049287,122.845133 L125.157115,144.733887 C121.386527,148.141207 117.665595,150.120074 111.435351,149.743303" id="Fill-85" fill="#FFFFFF"></path>
                                <path d="M380.41726,150.162338 L275.709675,150.043881 C271.91821,150.04068 270.073446,147.380279 271.589375,144.102 L284.611234,123.052501 C286.127162,119.777423 290.428322,117.123425 294.223076,117.126623 L394.323685,117.22267 C398.11515,117.225871 399.959914,119.886272 398.443985,123.16135 L390.35136,144.14682 C388.83872,147.4251 384.208726,150.165536 380.41726,150.162338" id="Fill-88" fill="#FFFFFF"></path>
                                <path d="M525.670641,149.966924 L412.108264,150.162338 C408.085309,150.178198 405.052208,148.875346 405.06554,145.607011 L412.262093,123.64419 C413.265323,119.588382 415.639636,117.418029 419.662591,117.395621 L522.420174,117.126623 C526.443129,117.107521 529.690252,119.742035 529.673532,123.01037 L532.980849,144.009657 C532.964129,147.277991 529.690252,149.947718 525.670641,149.966924" id="Fill-90" fill="#FFFFFF"></path>
                                <path d="M142.113487,108.116883 L55.851469,108.116883 C48.5514858,108.116883 42.6388298,102.304741 42.6388298,95.1361071 L42.6388298,12.980776 C42.6388298,5.81214244 48.5514858,0 55.851469,0 L142.113487,0 C149.410167,0 155.326126,5.81214244 155.326126,12.980776 L155.326126,95.1361071 C155.326126,102.304741 149.410167,108.116883 142.113487,108.116883" id="Fill-92" fill="#FFFFFF"></path>
                                <path d="M142.113487,108.116883 L55.851469,108.116883 C48.5514858,108.116883 42.6388298,102.304741 42.6388298,95.1361071 L42.6388298,12.980776 C42.6388298,5.81214244 48.5514858,0 55.851469,0 L142.113487,0 C149.410167,0 155.326126,5.81214244 155.326126,12.980776 L155.326126,95.1361071 C155.326126,102.304741 149.410167,108.116883 142.113487,108.116883 Z" id="Stroke-94" fill="#FFFFFF"></path>
                                <path d="M266.983194,108.116883 L180.721176,108.116883 C173.421193,108.116883 167.508537,102.304741 167.508537,95.1361071 L167.508537,12.980776 C167.508537,5.81214244 173.421193,0 180.721176,0 L266.983194,0 C274.279874,0 280.195833,5.81214244 280.195833,12.980776 L280.195833,95.1361071 C280.195833,102.304741 274.279874,108.116883 266.983194,108.116883" id="Fill-96" fill="#FFFFFF"></path>
                                <path d="M266.983194,108.116883 L180.721176,108.116883 C173.421193,108.116883 167.508537,102.304741 167.508537,95.1361071 L167.508537,12.980776 C167.508537,5.81214244 173.421193,0 180.721176,0 L266.983194,0 C274.279874,0 280.195833,5.81214244 280.195833,12.980776 L280.195833,95.1361071 C280.195833,102.304741 274.279874,108.116883 266.983194,108.116883 Z" id="Stroke-98" fill="#FFFFFF"></path>
                                <path d="M388.823545,108.116883 L302.529034,108.116883 C295.241326,108.116883 289.332641,102.311711 289.332641,95.1516735 L289.332641,12.9652096 C289.332641,5.80517261 295.241326,0 302.529034,0 L388.823545,0 C396.111252,0 402.019937,5.80517261 402.019937,12.9652096 L402.019937,95.1516735 C402.019937,102.311711 396.111252,108.116883 388.823545,108.116883" id="Fill-100" fill="#FFFFFF"></path>
                                <path d="M388.823545,108.116883 L302.529034,108.116883 C295.241326,108.116883 289.332641,102.311711 289.332641,95.1516735 L289.332641,12.9652096 C289.332641,5.80517261 295.241326,0 302.529034,0 L388.823545,0 C396.111252,0 402.019937,5.80517261 402.019937,12.9652096 L402.019937,95.1516735 C402.019937,102.311711 396.111252,108.116883 388.823545,108.116883 Z" id="Stroke-102" fill="#FFFFFF"></path>
                                <path d="M513.693251,108.116883 L427.39874,108.116883 C420.111033,108.116883 414.202348,102.311711 414.202348,95.1516735 L414.202348,12.9652096 C414.202348,5.80193131 420.111033,0 427.39874,0 L513.693251,0 C520.980959,0 526.889644,5.80193131 526.889644,12.9652096 L526.889644,95.1516735 C526.889644,102.311711 520.980959,108.116883 513.693251,108.116883" id="Fill-104" fill="#FFFFFF"></path>
                                <path d="M513.693251,108.116883 L427.39874,108.116883 C420.111033,108.116883 414.202348,102.311711 414.202348,95.1516735 L414.202348,12.9652096 C414.202348,5.80193131 420.111033,0 427.39874,0 L513.693251,0 C520.980959,0 526.889644,5.80193131 526.889644,12.9652096 L526.889644,95.1516735 C526.889644,102.311711 520.980959,108.116883 513.693251,108.116883 Z" id="Stroke-106" fill="#FFFFFF"></path>
                                <path d="M638.562572,108.116883 L552.268834,108.116883 C544.977613,108.116883 539.072055,102.314952 539.072055,95.1516735 L539.072055,12.9652096 C539.072055,5.80517261 544.977613,0 552.268834,0 L638.562572,0 C645.850493,0 651.759351,5.80517261 651.759351,12.9652096 L651.759351,95.1516735 C651.759351,102.314952 645.850493,108.116883 638.562572,108.116883" id="Fill-108" fill="#FFFFFF"></path>
                                <path d="M638.562572,108.116883 L552.268834,108.116883 C544.977613,108.116883 539.072055,102.314952 539.072055,95.1516735 L539.072055,12.9652096 C539.072055,5.80517261 544.977613,0 552.268834,0 L638.562572,0 C645.850493,0 651.759351,5.80517261 651.759351,12.9652096 L651.759351,95.1516735 C651.759351,102.314952 645.850493,108.116883 638.562572,108.116883 Z" id="Stroke-110" fill="#FFFFFF"></path>
                                <path d="M760.386676,108.116883 L674.092938,108.116883 C666.805017,108.116883 660.896159,102.311711 660.896159,95.1516735 L660.896159,12.9652096 C660.896159,5.80517261 666.805017,0 674.092938,0 L760.386676,0 C767.674597,0 773.583455,5.80517261 773.583455,12.9652096 L773.583455,95.1516735 C773.583455,102.311711 767.674597,108.116883 760.386676,108.116883" id="Fill-112" fill="#FFFFFF"></path>
                                <path d="M760.386676,108.116883 L674.092938,108.116883 C666.805017,108.116883 660.896159,102.311711 660.896159,95.1516735 L660.896159,12.9652096 C660.896159,5.80517261 666.805017,0 674.092938,0 L760.386676,0 C767.674597,0 773.583455,5.80517261 773.583455,12.9652096 L773.583455,95.1516735 C773.583455,102.311711 767.674597,108.116883 760.386676,108.116883 Z" id="Stroke-114" fill="#FFFFFF"></path>
                                <path d="M885.256383,108.116883 L798.962645,108.116883 C791.674723,108.116883 785.765866,102.311711 785.765866,95.1516735 L785.765866,12.9652096 C785.765866,5.80517261 791.674723,0 798.962645,0 L885.256383,0 C892.544304,0 898.453162,5.80517261 898.453162,12.9652096 L898.453162,95.1516735 C898.453162,102.311711 892.544304,108.116883 885.256383,108.116883" id="Fill-116" fill="#FFFFFF"></path>
                                <path d="M885.256383,108.116883 L798.962645,108.116883 C791.674723,108.116883 785.765866,102.311711 785.765866,95.1516735 L785.765866,12.9652096 C785.765866,5.80517261 791.674723,0 798.962645,0 L885.256383,0 C892.544304,0 898.453162,5.80517261 898.453162,12.9652096 L898.453162,95.1516735 C898.453162,102.311711 892.544304,108.116883 885.256383,108.116883 Z" id="Stroke-118" fill="#FFFFFF"></path>
                                <path d="M824.360978,150.162338 L931.098012,150.004738 C934.893782,149.998306 936.131533,147.235684 933.870574,143.829844 L912.742992,123.288672 C907.435516,118.789361 903.283275,117.12021 897.583019,117.126623 L799.681876,117.287446 C797.793894,117.293879 793.255474,120.059717 795.523033,123.462341 L813.389555,144.006729 C815.653814,147.412569 820.56851,150.168759 824.360978,150.162338" id="Fill-120" fill="#FFFFFF"></path>
                                <path d="M770.706613,117.128098 L668.636418,117.505762 C664.809076,117.508989 662.946856,120.255925 664.477129,123.635527 L676.97823,144.048709 C678.508503,147.431539 682.850362,150.165563 683.537491,150.162338 L794.547002,150.06227 C801.514557,150.059042 801.756878,145.678794 800.233244,142.295964 L783.559577,123.028683 C778.935564,116.915057 774.530635,117.12487 770.706613,117.128098" id="Fill-122" fill="#FFFFFF"></path>
                                <path d="M640.755645,117.133018 L544.915667,117.126623 C541.117221,117.129821 538.309532,118.639002 539.257497,123.105793 L542.884782,144.231126 C544.402185,147.508479 548.707529,150.165532 552.502683,150.162338 L659.283764,150.066412 C663.078918,150.063215 664.928767,147.399767 663.411364,144.119217 L651.930447,122.741287 C650.413044,119.463935 644.550799,117.129821 640.755645,117.133018" id="Fill-124" fill="#FFFFFF"></path>
                                <path d="M249.043451,149.800574 L141.326772,150.162338 C137.45456,150.155935 136.138075,147.754851 137.686288,144.409341 L157.305944,123.18376 C160.294902,120.043142 163.246918,117.123425 167.11913,117.126623 L269.354933,117.225871 C273.227145,117.229072 275.111197,119.947099 273.562983,123.292609 L259.521597,144.16283 C257.973384,147.50834 252.915663,149.806977 249.043451,149.800574" id="Fill-126" fill="#FFFFFF"></path>
                            </g>
                        </g>
                    </g>
                    <g id="bars" transform="translate(306.000000, 107.000000)">
                        <g id="green-chart" fill="#65D8B4">
                            <path d="M131.312775,107.888112 C142.056782,107.888112 150.76652,116.59785 150.76652,127.341856 L150.76652,580 L150.76652,580 L111.859031,580 L111.859031,127.341856 C111.859031,116.59785 120.568769,107.888112 131.312775,107.888112 Z" id="Rectangle"></path>
                            <path d="M19.4537445,139.524476 C30.1977509,139.524476 38.907489,148.234214 38.907489,158.97822 L38.907489,580 L38.907489,580 L0,580 L0,158.97822 C2.23695237e-15,148.234214 8.70973808,139.524476 19.4537445,139.524476 Z" id="Rectangle"></path>
                            <path d="M248.035242,81.9300699 C258.779249,81.9300699 267.488987,90.639808 267.488987,101.383814 L267.488987,580 L267.488987,580 L228.581498,580 L228.581498,101.383814 C228.581498,90.639808 237.291236,81.9300699 248.035242,81.9300699 Z" id="Rectangle"></path>
                            <path d="M303.964758,57.5944056 C314.708764,57.5944056 323.418502,66.3041437 323.418502,77.0481501 L323.418502,580 L323.418502,580 L284.511013,580 L284.511013,77.0481501 C284.511013,66.3041437 293.220751,57.5944056 303.964758,57.5944056 Z" id="Rectangle"></path>
                            <path d="M415.823789,57.5944056 C426.567795,57.5944056 435.277533,66.3041437 435.277533,77.0481501 L435.277533,580 L435.277533,580 L396.370044,580 L396.370044,77.0481501 C396.370044,66.3041437 405.079782,57.5944056 415.823789,57.5944056 Z" id="Rectangle"></path>
                            <path d="M475.806167,12.1678322 C486.550174,12.1678322 495.259912,20.8775703 495.259912,31.6215767 L495.259912,580 L495.259912,580 L456.352423,580 L456.352423,31.6215767 C456.352423,20.8775703 465.062161,12.1678322 475.806167,12.1678322 Z" id="Rectangle"></path>
                            <path d="M532.546256,66.5174825 C543.290262,66.5174825 552,75.2272206 552,85.971227 L552,580 L552,580 L513.092511,580 L513.092511,85.971227 C513.092511,75.2272206 521.802249,66.5174825 532.546256,66.5174825 Z" id="Rectangle"></path>
                            <path d="M360.704846,139.524476 C371.448852,139.524476 380.15859,148.234214 380.15859,158.97822 L380.15859,580 L380.15859,580 L341.251101,580 L341.251101,158.97822 C341.251101,148.234214 349.960839,139.524476 360.704846,139.524476 Z" id="Rectangle"></path>
                            <path d="M187.242291,57.5944056 C197.986297,57.5944056 206.696035,66.3041437 206.696035,77.0481501 L206.696035,580 L206.696035,580 L167.788546,580 L167.788546,77.0481501 C167.788546,66.3041437 176.498284,57.5944056 187.242291,57.5944056 Z" id="Rectangle"></path>
                            <path d="M76.1938326,0 C86.937839,-1.97364196e-15 95.6475771,8.70973808 95.6475771,19.4537445 L95.6475771,580 L95.6475771,580 L56.7400881,580 L56.7400881,19.4537445 C56.7400881,8.70973808 65.4498262,1.97364196e-15 76.1938326,0 Z" id="Rectangle"></path>
                        </g>
                        <g filter="url(#filter-5)" id="blue-chart">
                            <g transform="translate(0.000000, 328.000000)">
                                <rect id="Rectangle" fill="#65D8B4" x="111.859031" y="46.3575949" width="38.907489" height="210.642405"></rect>
                                <rect id="Rectangle" fill="#65D8B4" x="0" y="88.6487342" width="38.907489" height="168.351266"></rect>
                                <rect id="Rectangle" fill="#65D8B4" x="228.581498" y="34.971519" width="38.907489" height="222.028481"></rect>
                                <rect id="Rectangle" fill="#65D8B4" x="284.511013" y="0" width="38.907489" height="257"></rect>
                                <rect id="Rectangle" fill="#65D8B4" x="396.370044" y="28.4651899" width="38.907489" height="228.53481"></rect>
                                <rect id="Rectangle" fill="#65D8B4" x="456.352423" y="100.848101" width="38.907489" height="156.151899"></rect>
                                <rect id="Rectangle" fill="#65D8B4" x="513.092511" y="28.4651899" width="38.907489" height="228.53481"></rect>
                                <rect id="Rectangle" fill="#65D8B4" x="341.251101" y="62.6234177" width="38.907489" height="194.376582"></rect>
                                <rect id="Rectangle" fill="#65D8B4" x="167.788546" y="62.6234177" width="38.907489" height="194.376582"></rect>
                                <rect id="Rectangle" fill="#65D8B4" x="56.7400881" y="0" width="38.907489" height="257"></rect>
                            </g>
                        </g>
                    </g>
                    <ellipse id="Oval" fill="#60D9B3" style="mix-blend-mode: multiply;" cx="37.5" cy="608" rx="27.5" ry="26"></ellipse>
                    <circle id="geometric" fill="#4BBFE1" style="mix-blend-mode: multiply;" cx="12" cy="591" r="12"></circle>
                    <g id="Group-2" transform="translate(85.000000, 108.000000)">
                        <ellipse id="Oval" fill="#60D9B3" style="mix-blend-mode: multiply;" cx="24" cy="43.5" rx="24" ry="22.5"></ellipse>
                        <circle id="geometric" fill="#4BBFE1" style="mix-blend-mode: multiply;" cx="52.5" cy="26.5" r="26.5"></circle>
                    </g>
                    <g id="Group-3" transform="translate(960.000000, 0.000000)">
                        <ellipse id="Oval" fill="#4BBFE1" style="mix-blend-mode: multiply;" transform="translate(27.000000, 26.500000) rotate(-164.000000) translate(-27.000000, -26.500000) " cx="27" cy="26.5" rx="21" ry="21.5"></ellipse>
                        <path d="M83.0852499,7.72252257 C60.7178508,1.2890948 37.6224557,13.4350392 31.5002412,34.8512486 C25.3780267,56.267458 38.5473509,78.8440497 60.9147501,85.2774774 C83.2821492,91.7109052 106.377544,79.5649608 112.499759,58.1487514 C118.621973,36.732542 105.452649,14.1559503 83.0852499,7.72252257 Z" id="Oval" fill="#60D9B3" style="mix-blend-mode: multiply;"></path>
                    </g>
                    <ellipse id="Oval" fill="#60D9B3" style="mix-blend-mode: multiply;" cx="1099.5" cy="559" rx="12.5" ry="12"></ellipse>
                </g>
            </g>
        </g>
    </g>
</svg>